<?xml version="1.0" encoding="UTF-8"?>
<svg xmlns="http://www.w3.org/2000/svg"
    xmlns:xlink="http://www.w3.org/1999/xlink"
    viewBox="0 0 176 264">

<line x1="0" y1="80" x2="176" y2="80" stroke="black" />
<line x1="0" y1="160" x2="176" y2="160" stroke="black" />
<line x1="0" y1="240" x2="176" y2="240" stroke="black" />

<line x1="44" y1="240" x2="44" y2="264" stroke="black" />
<line x1="88" y1="240" x2="88" y2="264" stroke="black" />
<line x1="132" y1="240" x2="132" y2="264" stroke="black" />

<g transform="translate(12, 242)" fill-rule="evenodd">
    <path id="cog" d="M3.93830521,6.49683865 C3.63405147,7.02216933 3.39612833,7.5907092 3.23599205,8.19100199 L5.9747955e-16,9 L9.6487359e-16,11 L3.23599205,11.808998 C3.39612833,12.4092908 3.63405147,12.9778307 3.93830521,13.5031614 L2.22182541,16.363961 L3.63603897,17.7781746 L6.49683865,16.0616948 C7.02216933,16.3659485 7.5907092,16.6038717 8.19100199,16.7640079 L9,20 L11,20 L11.808998,16.7640079 C12.4092908,16.6038717 12.9778307,16.3659485 13.5031614,16.0616948 L16.363961,17.7781746 L17.7781746,16.363961 L16.0616948,13.5031614 C16.3659485,12.9778307 16.6038717,12.4092908 16.7640079,11.808998 L20,11 L20,9 L16.7640079,8.19100199 C16.6038717,7.5907092 16.3659485,7.02216933 16.0616948,6.49683865 L17.7781746,3.63603897 L16.363961,2.22182541 L13.5031614,3.93830521 C12.9778307,3.63405147 12.4092908,3.39612833 11.808998,3.23599205 L11,0 L9,0 L8.19100199,3.23599205 C7.5907092,3.39612833 7.02216933,3.63405147 6.49683865,3.93830521 L3.63603897,2.22182541 L2.22182541,3.63603897 L3.93830521,6.49683865 L3.93830521,6.49683865 Z M10,13 C11.6568542,13 13,11.6568542 13,10 C13,8.34314575 11.6568542,7 10,7 C8.34314575,7 7,8.34314575 7,10 C7,11.6568542 8.34314575,13 10,13 L10,13 Z" fill="black"></path>
</g>

<g transform="translate(56, 242)" fill-rule="evenodd">
    <polygon id="left-arrow" points="10 13 18 13 18 7 10 7 10 2 2 10 10 18 10 13" fill="black"></polygon>
</g>

<g transform="translate(100, 242)" fill-rule="evenodd">
    <polygon id="right-arrow" points="10 7 2 7 2 13 10 13 10 18 18 10 10 2 10 7" fill="black"></polygon>
</g>

<g transform="translate(144, 242)" fill-rule="evenodd">
    <path id="refresh" d="M10,3 C6.13400675,3 3,6.13400675 3,10 C3,11.9329966 3.78350169,13.6829966 5.05025253,14.9497475 L6.46446609,13.5355339 C5.55964406,12.6307119 5,11.3807119 5,10 C5,7.23857625 7.23857625,5 10,5 L10,3 L10,3 Z M14.9497475,5.05025253 C16.2164983,6.31700338 17,8.06700338 17,10 C17,13.8659932 13.8659932,17 10,17 L10,15 C12.7614237,15 15,12.7614237 15,10 C15,8.61928813 14.4403559,7.36928813 13.5355339,6.46446609 L14.9497475,5.05025253 L14.9497475,5.05025253 Z M10,20 L6,16 L10,12 L10,20 L10,20 Z M10,8 L14,4 L10,0 L10,8 L10,8 Z" fill="black"></path>
</g>

</svg>