<?xml version="1.0" encoding="UTF-8"?>
<svg xmlns="http://www.w3.org/2000/svg"
    xmlns:xlink="http://www.w3.org/1999/xlink"
    viewBox="0 0 176 264">

<line x1="0" y1="240" x2="176" y2="240" stroke="black" />

<line x1="44" y1="240" x2="44" y2="264" stroke="black" />
<line x1="88" y1="240" x2="88" y2="264" stroke="black" />
<line x1="132" y1="240" x2="132" y2="264" stroke="black" />

<g transform="translate(12, 242)" fill-rule="evenodd">
    <path fill="black" d="M11,11.1707057 C12.1651924,11.5825421 13,12.6937812 13,14 C13,15.6568542 11.6568542,17 10,17 C8.34314575,17 7,15.6568542 7,14 C7,12.6937812 7.83480763,11.5825421 9,11.1707057 L9,7 L11,7 L11,11.1707057 Z M12,10.5351288 C13.1956027,11.2267476 14,12.5194353 14,14 C14,16.209139 12.209139,18 10,18 C7.790861,18 6,16.209139 6,14 C6,12.5194353 6.80439726,11.2267476 8,10.5351288 L8,4.0085302 C8,2.8992496 8.88772964,2 10,2 C11.1045695,2 12,2.90195036 12,4.0085302 L12,10.5351288 Z M14,9.52778699 C15.2274987,10.6264281 16,12.2230004 16,14 C16,17.3137085 13.3137085,20 10,20 C6.6862915,20 4,17.3137085 4,14 C4,12.2230004 4.77250128,10.6264281 6,9.52778699 L6,4.00002024 C6,1.79087006 7.79535615,0 10,0 C12.209139,0 14,1.79445134 14,4.00002024 L14,9.52778699 Z" id="thermometer"></path>
</g>

<g transform="translate(56, 242)" fill-rule="evenodd">
    <polygon id="left-arrow" points="10 13 18 13 18 7 10 7 10 2 2 10 10 18 10 13" fill="black"></polygon>
</g>

<g transform="translate(100, 242)" fill-rule="evenodd">
    <polygon id="right-arrow" points="10 7 2 7 2 13 10 13 10 18 18 10 10 2 10 7" fill="black"></polygon>
</g>

<g transform="translate(144, 242)" fill-rule="evenodd">
    <path id="refresh" d="M10,3 C6.13400675,3 3,6.13400675 3,10 C3,11.9329966 3.78350169,13.6829966 5.05025253,14.9497475 L6.46446609,13.5355339 C5.55964406,12.6307119 5,11.3807119 5,10 C5,7.23857625 7.23857625,5 10,5 L10,3 L10,3 Z M14.9497475,5.05025253 C16.2164983,6.31700338 17,8.06700338 17,10 C17,13.8659932 13.8659932,17 10,17 L10,15 C12.7614237,15 15,12.7614237 15,10 C15,8.61928813 14.4403559,7.36928813 13.5355339,6.46446609 L14.9497475,5.05025253 L14.9497475,5.05025253 Z M10,20 L6,16 L10,12 L10,20 L10,20 Z M10,8 L14,4 L10,0 L10,8 L10,8 Z" fill="black"></path>
</g>

</svg>